PathFileType	4	(X/Y/Z)	s05c0102.trc
DataRate	CameraRate	NumFrames	NumMarkers	Units	OrigDataRate	OrigDataStartFrame	OrigNumFrames
200	200	4	50	mm	200	0	2000
Frame#	Time	racr			lacr			c7			jug			rlel			rdr			llel			ldr			s2			lic			ric			lasi			rasi			rpsi			lpsi			rgt			lgt			rth1			rth2			rth3			rth4			rlfc			rmfc			rsh1			rsh2			rsh3			rsh4			rlmal			rmmal			rcal			rtoe			rmt5			lth1			lth2			lth4			lth3			llfc			lmfc			lsh1			lsh2			lsh3			lsh4			llmal			lmmal			lcal			ltoe			lmt5			SBIKE			LBIKE			RBIKE			
		X1	Y1	Z1	X2	Y2	Z2	X3	Y3	Z3	X4	Y4	Z4	X5	Y5	Z5	X6	Y6	Z6	X7	Y7	Z7	X8	Y8	Z8	X9	Y9	Z9	X10	Y10	Z10	X11	Y11	Z11	X12	Y12	Z12	X13	Y13	Z13	X14	Y14	Z14	X15	Y15	Z15	X16	Y16	Z16	X17	Y17	Z17	X18	Y18	Z18	X19	Y19	Z19	X20	Y20	Z20	X21	Y21	Z21	X22	Y22	Z22	X23	Y23	Z23	X24	Y24	Z24	X25	Y25	Z25	X26	Y26	Z26	X27	Y27	Z27	X28	Y28	Z28	X29	Y29	Z29	X30	Y30	Z30	X31	Y31	Z31	X32	Y32	Z32	X33	Y33	Z33	X34	Y34	Z34	X35	Y35	Z35	X36	Y36	Z36	X37	Y37	Z37	X38	Y38	Z38	X39	Y39	Z39	X40	Y40	Z40	X41	Y41	Z41	X42	Y42	Z42	X43	Y43	Z43	X44	Y44	Z44	X45	Y45	Z45	X46	Y46	Z46	X47	Y47	Z47	X48	Y48	Z48	X49	Y49	Z49	X50	Y50	Z50	
0	0.0000	412.035843	1357.578445	-148.978377	420.374049	1375.788595	-424.714398	388.412627	1445.138011	-289.594947	372.846047	1289.361177	-289.857478	525.168911	1122.106188	-70.609169	698.631164	916.361211	-109.953559	515.024578	1123.745707	-511.584855	751.998727	1024.459117	-479.237159	-139.003801	1166.522005	-272.993485	11.675553	1170.684865	-417.258578	22.767755	1189.585209	-139.161871	56.379227	1115.854182	-383.916601	53.317338	1124.921230	-165.653227	-100.398918	1212.841519	-233.129425	-99.367114	1212.838674	-319.277696	-35.143643	1063.448051	-99.694898	-68.642536	1069.808056	-444.548263	62.386777	996.304411	-85.034406	148.941503	974.018213	-79.071082	210.735170	910.761874	-82.939385	166.678216	1004.623726	-90.404975	338.867442	827.393438	-108.585937	328.598011	824.324004	-218.639560	286.622832	729.091020	-86.484342	290.417430	640.659039	-98.404401	252.607212	563.866953	-104.940262	320.648866	637.930129	-122.851161	231.077625	431.070806	-119.249833	239.413024	465.275202	-196.335966	164.022990	392.028042	-165.073599	459.212612	401.107134	-159.263288	361.389935	366.644166	-94.716803	17.248848	957.797524	-469.625894	92.872515	916.506652	-474.662466	119.664610	940.697978	-463.331562	138.211834	838.884765	-480.102401	225.285144	715.573688	-455.193801	221.293251	707.439912	-345.660669	132.662698	629.378444	-471.655471	94.322464	551.805176	-455.947798	19.916404	503.859165	-450.601581	120.096274	534.825118	-433.233345	-56.234344	408.120047	-435.683270	-19.256584	428.578802	-361.443972	-127.519389	390.703025	-389.977146	140.971485	272.280688	-402.174213	29.350766	285.007958	-462.224738	-221.100518	910.373635	-274.513119	-53.483360	79.320779	-474.856740	-53.206013	78.792556	-77.244843	
1	0.0050	412.028209	1357.559128	-149.062163	420.320022	1375.713628	-424.756335	388.425615	1445.036625	-289.620924	372.760734	1289.273795	-289.906675	525.182306	1122.103997	-70.669676	698.633760	916.375333	-109.966908	514.932894	1123.683181	-511.719265	751.823916	1024.297164	-479.234334	-139.038303	1166.509668	-272.953486	11.614762	1170.714715	-417.222722	22.745838	1189.589957	-139.142562	56.324634	1115.898536	-383.923236	53.305957	1124.930610	-165.675219	-100.445782	1212.905188	-233.133750	-99.440356	1212.845825	-319.241249	-35.175017	1063.449481	-99.677513	-68.683905	1069.821497	-444.506508	62.394656	996.335145	-85.016341	148.968312	974.051466	-79.036405	210.732766	910.808903	-82.880762	166.695253	1004.679966	-90.372250	338.860326	827.454531	-108.535361	328.607670	824.374519	-218.615961	286.652506	729.133679	-86.438955	290.423774	640.724388	-98.401021	252.607221	563.944763	-104.905451	320.658317	637.986636	-122.831766	231.062730	431.161955	-119.237690	239.427492	465.343737	-196.321307	164.041247	392.053470	-165.083258	459.187362	401.167467	-159.265885	361.370392	366.679805	-94.714719	17.221486	957.818740	-469.617735	92.846406	916.523607	-474.653366	119.643933	940.715287	-463.313299	138.167135	838.896371	-480.091478	225.240843	715.575272	-455.158467	221.226584	707.447729	-345.660325	132.643602	629.346596	-471.649411	94.312033	551.779733	-455.941964	19.919044	503.816596	-450.578382	120.083706	534.801996	-433.212140	-56.229258	408.071934	-435.672022	-19.256965	428.546459	-361.456213	-127.496304	390.651185	-389.971233	140.979291	272.232612	-402.177644	29.374695	284.950406	-462.204030	-221.088132	910.375620	-274.505372	-53.482028	79.414429	-474.913389	-53.231641	78.813292	-77.245515	
2	0.0100	412.032736	1357.516871	-149.155381	420.252623	1375.655749	-424.788339	388.420904	1444.941636	-289.673259	372.722364	1289.179002	-289.963077	525.172331	1122.095853	-70.697260	698.646902	916.379477	-109.957264	514.830079	1123.600172	-511.851489	751.862660	1024.416248	-479.198410	-139.074968	1166.493908	-272.913920	11.517500	1170.734189	-417.217275	22.714074	1189.613261	-139.112977	56.245305	1115.924440	-383.921107	53.266506	1124.938228	-165.620232	-100.480684	1212.879798	-233.093006	-99.491817	1212.851004	-319.206389	-35.169610	1063.449892	-99.653407	-68.737424	1069.835599	-444.490945	62.382795	996.365778	-84.991499	148.959408	974.079350	-78.986317	210.745542	910.832974	-82.833100	166.698734	1004.713998	-90.338762	338.877498	827.494146	-108.489327	328.618877	824.404838	-218.596929	286.664975	729.169744	-86.398871	290.430023	640.778048	-98.369658	252.587853	563.994903	-104.887732	320.656972	638.039514	-122.804556	231.050282	431.210127	-119.226273	239.408589	465.408003	-196.311490	164.025216	392.114050	-165.065184	459.177776	401.222824	-159.271082	361.368126	366.723714	-94.712658	17.194693	957.836248	-469.603256	92.824523	916.535001	-474.634672	119.623076	940.721508	-463.298441	138.118505	838.900634	-480.061765	225.183692	715.573705	-455.151737	221.180095	707.448142	-345.620811	132.638534	629.314621	-471.623341	94.298895	551.740864	-455.910546	19.915883	503.766061	-450.583296	120.071295	534.771438	-433.205349	-56.205711	408.028448	-435.689724	-19.208562	428.445363	-361.447823	-127.485722	390.601679	-389.969241	141.003120	272.185395	-402.173084	29.389727	284.871767	-462.201078	-221.082378	910.378994	-274.503914	-53.498342	79.388672	-474.922265	-53.322106	79.031067	-77.075717	
3	0.0150	412.041639	1357.505363	-149.239551	420.199258	1375.580324	-424.827781	388.435594	1444.839529	-289.718646	372.658797	1289.112150	-290.010377	525.191488	1122.022783	-70.743978	698.639560	916.384224	-109.978758	514.706368	1123.532213	-512.011330	753.920895	1026.857602	-479.273944	-139.105133	1166.493184	-272.882728	11.430745	1170.752054	-417.213705	23.032762	1190.076793	-139.222290	56.064150	1116.453286	-384.009477	53.233291	1124.945669	-165.610520	-100.147131	1212.901477	-232.690418	-99.532234	1212.859578	-319.183614	-35.192760	1063.454926	-99.630619	-68.779314	1069.859006	-444.463036	62.236908	996.686429	-84.932796	149.040822	974.017775	-79.026188	210.329972	911.240323	-82.853400	166.691536	1004.748611	-90.287401	338.878626	827.529355	-108.444228	328.617752	824.429973	-218.547038	286.673986	729.215680	-86.365260	290.398577	640.779239	-98.814407	252.606487	564.038173	-104.872787	320.847663	637.998855	-122.754543	230.710412	431.794392	-118.900420	239.805147	465.252582	-196.455970	163.997652	392.168951	-165.065225	459.156335	401.278128	-159.268019	361.374602	366.768545	-94.720283	17.175827	958.011166	-469.553161	92.789467	916.540426	-474.614931	119.448386	940.568228	-463.071385	138.062325	838.760740	-479.726304	225.140362	715.567266	-455.108451	221.140411	707.434812	-345.602519	132.601728	629.307606	-471.617944	94.294858	551.707929	-455.898405	19.879582	503.719773	-450.598013	119.207219	534.836267	-432.345365	-56.225680	408.052711	-435.750532	-19.216441	428.404161	-361.445577	-127.724743	390.816269	-389.558232	141.013949	272.120506	-402.181444	29.395439	284.818666	-462.198544	-221.234147	910.420263	-274.986171	-53.487523	79.408504	-474.905480	-53.327183	79.021630	-77.083259	
